<?xml version="1.0" encoding="utf-8"?>
<!-- Generator: Adobe Illustrator 27.0.0, SVG Export Plug-In . SVG Version: 6.00 Build 0)  -->
<svg version="1.1" id="Layer_1" xmlns="http://www.w3.org/2000/svg" xmlns:xlink="http://www.w3.org/1999/xlink" x="0px" y="0px"
	 viewBox="0 0 108.95 116.28" style="enable-background:new 0 0 108.95 116.28;" xml:space="preserve">
<g>
	<g>
		<g>
			<path style="stroke:#000000;stroke-miterlimit:10;" d="M68.2,105.42c-10.33-3.87-18.72-11.23-23.59-20.75
				c-5.07-9.86-5.77-20.81-2.03-30.83c7.6-20.31,31.45-30.22,53.2-22.09l-7.94,21.2C77.81,49.18,67,53.14,63.77,61.77
				c-1.5,3.98-1.14,8.44,0.97,12.56c2.28,4.48,6.35,7.99,11.39,9.89L68.2,105.42z"/>
		</g>
		<g>
			<g>
				<path style="fill:#6597F4;stroke:#000000;stroke-miterlimit:10;" d="M73.77,108.21c-10.33-3.87-18.72-11.23-23.59-20.75
					c-5.07-9.86-5.77-20.81-2.03-30.83c7.6-20.31,31.45-30.22,53.2-22.09l-7.94,21.2c-10.03-3.76-20.83,0.19-24.07,8.83
					c-1.5,3.98-1.14,8.44,0.97,12.56c2.28,4.48,6.35,7.99,11.39,9.89L73.77,108.21z"/>
			</g>
		</g>
	</g>
	<g>
		<g>
			<path style="stroke:#000000;stroke-miterlimit:10;" d="M8.98,84.14c-0.17,0-0.31,0-0.47,0l0.28-22.62c0.06,0,0.11,0,0.17,0
				c7.49,0,13.65-6.57,13.76-14.73c0.06-4.09-1.39-7.91-4.07-10.81c-2.53-2.73-5.91-4.26-9.47-4.32L9.45,9.05
				c9.8,0.14,18.97,4.21,25.74,11.53c6.66,7.16,10.25,16.57,10.14,26.49C45.08,67.59,28.81,84.14,8.98,84.14z"/>
		</g>
		<g>
			<g>
				<path style="fill:#A4A2F8;stroke:#000000;stroke-miterlimit:10;" d="M11.77,86.92c-0.17,0-0.31,0-0.47,0l0.28-22.62
					c0.06,0,0.11,0,0.17,0c7.49,0,13.65-6.57,13.76-14.73c0.06-4.09-1.39-7.91-4.07-10.81c-2.53-2.73-5.91-4.26-9.47-4.32
					l0.28-22.62c9.8,0.14,18.97,4.21,25.74,11.53c6.66,7.16,10.25,16.57,10.14,26.49C47.86,70.38,31.6,86.92,11.77,86.92z"/>
			</g>
		</g>
	</g>
</g>
</svg>
