<?xml version="1.0" encoding="utf-8"?>
<!-- Generator: Adobe Illustrator 27.0.0, SVG Export Plug-In . SVG Version: 6.00 Build 0)  -->
<svg version="1.1" xmlns="http://www.w3.org/2000/svg" xmlns:xlink="http://www.w3.org/1999/xlink" x="0px" y="0px"
	 viewBox="0 0 391.84 386.4" style="enable-background:new 0 0 391.84 386.4;" xml:space="preserve">
<g id="Background_Complete">
</g>
<g id="Background_Simple" style="display:none;">
	<path style="display:inline;fill:#F5F5F5;" d="M327.95,10.34l-2.23,1.72c-18.8,14.5-28.49,38-24.4,61.17
		c0.53,2.98,1.27,5.92,2.23,8.8c6.92,20.71,25.03,37.37,46.44,42.73c12.59,3.15,26.65,2.85,37.19,10.31
		c13.73,9.72,16.23,28.54,17.58,45.19c1.34,16.65,3.9,35.48,17.67,45.14c8.63,6.05,20.04,7,30.48,5.26
		c27.67-4.6,50.38-26.78,59.99-52.83c9.61-26.05,7.46-55.21-1-81.6c-11.86-36.96-36.82-70.58-71.57-88.57
		C405.58-10.32,360.92-10.86,327.95,10.34z"/>
	
		<ellipse transform="matrix(0.1587 -0.9873 0.9873 0.1587 -151.873 32.5423)" style="display:inline;fill:#F5F5F5;" cx="-56.84" cy="105.39" rx="72.09" ry="72.09"/>
</g>
<g id="Table">
</g>
<g id="Plants">
</g>
<g id="Device">
</g>
<g id="Character">
</g>
<g id="Speech_Bubble">
	<g>
		<g>
			<path style="stroke:#000000;stroke-width:0.5;stroke-miterlimit:10;" d="M87.51,371.26c-6.87,0-12.46-5.59-12.46-12.46
				s5.59-12.45,12.46-12.45s12.46,5.59,12.46,12.45S94.38,371.26,87.51,371.26z M87.51,352.35c-3.56,0-6.46,2.9-6.46,6.45
				c0,3.56,2.9,6.46,6.46,6.46s6.46-2.9,6.46-6.46C93.96,355.24,91.07,352.35,87.51,352.35z"/>
		</g>
		<g>
			<g>
				<path style="fill:#E6A4A5;stroke:#272525;stroke-width:0.5;stroke-miterlimit:10;" d="M88.51,370.26
					c-6.87,0-12.46-5.59-12.46-12.46s5.59-12.45,12.46-12.45s12.46,5.59,12.46,12.45S95.38,370.26,88.51,370.26z M88.51,351.35
					c-3.56,0-6.46,2.9-6.46,6.45c0,3.56,2.9,6.46,6.46,6.46s6.46-2.9,6.46-6.46C94.96,354.24,92.07,351.35,88.51,351.35z"/>
			</g>
		</g>
	</g>
	<g>
		<g>
			<g>
				<g>
					<g>
						<g>
							<g>
								<g>
									<g>
										<g>
											<g>
												<g>
													<path style="fill:#455A64;" d="M318.62,297.28H68.21c-8.05,0-14.57-6.52-14.57-14.57V126.98
														c0-8.05,6.52-14.57,14.57-14.57h250.41c8.05,0,14.57,6.52,14.57,14.57v155.73
														C333.18,290.76,326.66,297.28,318.62,297.28z"/>
												</g>
											</g>
										</g>
									</g>
									<g>
										<g>
											<g>
												<g>
													<path style="fill:#455A64;" d="M331.18,301.51H60.66c-8.93,0-16.18-7.24-16.18-16.18l0,0h302.87l0,0
														C347.35,294.27,340.11,301.51,331.18,301.51z"/>
												</g>
											</g>
										</g>
									</g>
									<g>
										<g>
											<g>
												<g>
													<polygon style="fill:#263238;" points="165.85,283.61 169.61,289.58 222.5,289.58 225.99,283.61 													"/>
												</g>
											</g>
										</g>
									</g>
								</g>
								<g>
									<g>
										<g>
											<g>
												<path style="fill:#263238;" d="M330.78,283.6c0,0.1-62.05,0.18-138.56,0.18c-76.55,0-138.58-0.08-138.58-0.18
													c0-0.1,62.03-0.18,138.58-0.18C268.74,283.42,330.78,283.51,330.78,283.6z"/>
											</g>
										</g>
									</g>
								</g>
							</g>
						</g>
					</g>
				</g>
				<g>
					<g>
						<g>
							<g>
								<g>
									<g>
										<g>
											<g>
												<path style="fill:#EBEBEB;" d="M320.81,278.72H64.92c-1.81,0-3.27-1.47-3.27-3.27V126.32c0-1.81,1.47-3.27,3.27-3.27
													h255.9c1.81,0,3.27,1.47,3.27,3.27v149.13C324.08,277.25,322.62,278.72,320.81,278.72z"/>
											</g>
										</g>
									</g>
								</g>
							</g>
							<g>
								<g>
									<g>
										<g>
											<g>
												<polygon style="fill:#FFFFFF;" points="323.8,278.95 61.36,278.95 61.64,134.68 323.8,134.68 												"/>
											</g>
										</g>
									</g>
								</g>
							</g>
							<g>
								<g>
									<g>
										<g>
											<g>
												<path style="fill:#263238;" d="M83.17,129.06c0,1.16-0.94,2.1-2.1,2.1c-1.16,0-2.1-0.94-2.1-2.1
													c0-1.16,0.94-2.1,2.1-2.1C82.23,126.96,83.17,127.9,83.17,129.06z"/>
											</g>
										</g>
									</g>
								</g>
							</g>
							<g>
								<g>
									<g>
										<g>
											<g>
												<path style="fill:#263238;" d="M70.47,129.06c0,1.16-0.94,2.1-2.1,2.1c-1.16,0-2.1-0.94-2.1-2.1
													c0-1.16,0.94-2.1,2.1-2.1C69.53,126.96,70.47,127.9,70.47,129.06z"/>
											</g>
										</g>
									</g>
								</g>
							</g>
							<g>
								<g>
									<g>
										<g>
											<g>
												<path style="fill:#263238;" d="M76.56,129.06c0,1.16-0.94,2.1-2.1,2.1c-1.16,0-2.1-0.94-2.1-2.1
													c0-1.16,0.94-2.1,2.1-2.1C75.62,126.96,76.56,127.9,76.56,129.06z"/>
											</g>
										</g>
									</g>
								</g>
							</g>
						</g>
					</g>
				</g>
				<rect x="61.36" y="265.01" style="fill:#263238;" width="262.72" height="13.93"/>
				<g>
					<g>
						<path style="fill:#FFFFFF;" d="M71.29,273.59v0.45H69.2v-0.35l1.13-1.07c0.28-0.26,0.32-0.43,0.32-0.59
							c0-0.26-0.18-0.41-0.53-0.41c-0.28,0-0.51,0.09-0.66,0.3l-0.37-0.28c0.22-0.3,0.61-0.47,1.08-0.47c0.62,0,1.01,0.31,1.01,0.82
							c0,0.28-0.08,0.53-0.47,0.9l-0.76,0.72H71.29z"/>
						<path style="fill:#FFFFFF;" d="M71.57,272.19c0-0.2,0.15-0.34,0.33-0.34c0.18,0,0.33,0.13,0.33,0.34
							c0,0.19-0.15,0.34-0.33,0.34C71.72,272.52,71.57,272.38,71.57,272.19z M71.57,273.73c0-0.2,0.15-0.34,0.33-0.34
							c0.18,0,0.33,0.13,0.33,0.34c0,0.19-0.15,0.34-0.33,0.34C71.72,274.07,71.57,273.92,71.57,273.73z"/>
						<path style="fill:#FFFFFF;" d="M73.56,271.2v2.84h-0.53v-2.4h-0.6v-0.44H73.56z"/>
						<path style="fill:#FFFFFF;" d="M76.65,273.39h-0.5v0.64h-0.51v-0.64h-1.56v-0.37l1.4-1.83h0.56l-1.32,1.75h0.93v-0.57h0.49
							v0.57h0.5V273.39z"/>
					</g>
					<g>
						<rect x="81.29" y="272.26" style="fill:#FFFFFF;" width="215.34" height="0.98"/>
					</g>
					<g>
						<rect x="81.13" y="271.2" style="fill:#A2A1F5;" width="67.29" height="2.62"/>
					</g>
					<g>
						<path style="fill:#A2A1F5;" d="M150.59,272.75c0,1.81-1.47,3.28-3.28,3.28c-1.81,0-3.28-1.47-3.28-3.28
							c0-1.81,1.47-3.28,3.28-3.28C149.13,269.47,150.59,270.94,150.59,272.75z"/>
					</g>
					<g>
						<path style="fill:#FFFFFF;" d="M302.05,272.72c0,0.56-0.46,0.92-1.04,0.92c-0.77,0-1.23-0.5-1.23-1.41
							c0-0.97,0.57-1.51,1.39-1.51c0.28,0,0.56,0.06,0.75,0.18l-0.19,0.4c-0.15-0.1-0.34-0.14-0.54-0.14
							c-0.54,0-0.87,0.33-0.87,0.98v0c0.17-0.2,0.44-0.3,0.76-0.3C301.63,271.85,302.05,272.19,302.05,272.72z M301.54,272.74
							c0-0.3-0.22-0.48-0.57-0.48c-0.34,0-0.58,0.21-0.58,0.49c0,0.27,0.21,0.48,0.59,0.48
							C301.31,273.23,301.54,273.04,301.54,272.74z"/>
						<path style="fill:#FFFFFF;" d="M302.3,271.75c0-0.2,0.15-0.34,0.33-0.34c0.18,0,0.33,0.13,0.33,0.34
							c0,0.19-0.15,0.34-0.33,0.34C302.45,272.08,302.3,271.94,302.3,271.75z M302.3,273.29c0-0.2,0.15-0.34,0.33-0.34
							c0.18,0,0.33,0.13,0.33,0.34c0,0.19-0.15,0.34-0.33,0.34C302.45,273.63,302.3,273.48,302.3,273.29z"/>
						<path style="fill:#FFFFFF;" d="M303.31,272.18c0-0.93,0.51-1.46,1.18-1.46c0.68,0,1.19,0.53,1.19,1.46
							c0,0.93-0.51,1.46-1.19,1.46C303.82,273.64,303.31,273.11,303.31,272.18z M305.15,272.18c0-0.69-0.27-1-0.66-1
							c-0.38,0-0.65,0.32-0.65,1c0,0.69,0.27,1,0.65,1C304.88,273.18,305.15,272.86,305.15,272.18z"/>
						<path style="fill:#FFFFFF;" d="M306.03,272.18c0-0.93,0.51-1.46,1.18-1.46c0.68,0,1.19,0.53,1.19,1.46
							c0,0.93-0.51,1.46-1.19,1.46C306.55,273.64,306.03,273.11,306.03,272.18z M307.88,272.18c0-0.69-0.27-1-0.66-1
							c-0.38,0-0.65,0.32-0.65,1c0,0.69,0.27,1,0.65,1C307.61,273.18,307.88,272.86,307.88,272.18z"/>
					</g>
					<g>
						<polygon style="fill:#FFFFFF;" points="312.99,272 312.01,272 312.01,269.17 314.83,269.17 314.83,270.15 312.99,270.15 
													"/>
					</g>
					<g>
						<polygon style="fill:#FFFFFF;" points="314.84,275.7 312.01,275.7 312.01,272.87 312.99,272.87 312.99,274.72 314.84,274.72 
													"/>
					</g>
					<g>
						<polygon style="fill:#FFFFFF;" points="319.34,275.7 316.52,275.7 316.52,274.72 318.36,274.72 318.36,272.87 319.34,272.87 
													"/>
					</g>
					<g>
						<polygon style="fill:#FFFFFF;" points="319.35,272 318.37,272 318.37,270.15 316.52,270.15 316.52,269.17 319.35,269.17 
													"/>
					</g>
				</g>
			</g>
			<g>
				<g>
					<polygon style="fill:#EBEBEB;" points="97.35,143.26 81.88,143.26 74.15,156.66 81.88,170.05 97.35,170.05 105.09,156.66 					
						"/>
					<g>
						<g>
							<g>
								<path style="fill:#263238;" d="M83.15,159.28c-0.69-0.77-1.39-1.54-1.89-2.44c-0.5-0.9-0.8-1.95-0.64-2.97
									c0.1-0.59,0.35-1.16,0.39-1.76c0.06-0.83-0.29-1.69,0-2.47c0.46-1.21,2.09-1.4,3.08-2.24c0.77-0.65,1.15-1.71,1.99-2.26
									c0.74-0.48,1.69-0.47,2.57-0.35c0.87,0.12,1.75,0.34,2.63,0.23c0.62-0.08,1.21-0.34,1.82-0.49
									c0.61-0.15,1.29-0.19,1.84,0.12c0.54,0.32,0.85,1.09,0.49,1.61c1.01-0.47,2.3,0.32,2.58,1.4c0.28,1.08-0.28,2.25-1.14,2.96
									c-0.86,0.71-1.97,1.04-3.07,1.25c-3.1,0.59-6.47,0.26-9.15-1.43"/>
							</g>
							<g>
								<g>
									<g>
										<g>
											<g>
												<g>
													<g>
														<path style="fill:#FFBE9D;" d="M97.49,162.58c-0.1-1.92-0.64-5.85-1.17-9.4c-0.57-3.82-3.97-6.57-7.83-6.31
															l-0.38,0.03c-4.11,0.52-5.97,4.3-5.34,8.39l1.21,14.76h10.04c0,0-0.24-2.59-0.24-2.61
															C93.78,167.44,97.7,166.55,97.49,162.58z"/>
														<g>
															<g>
																<g>
																	<g>
																		<g>
																			<g>
																				<g>
																					<g>
																						<g>
																							<g>
																								<path style="fill:#EB996E;" d="M93.78,167.38c0,0-2.49,0.37-5.27-1.12c0,0,1.41,2.77,5.35,2.15
																									L93.78,167.38z"/>
																							</g>
																						</g>
																					</g>
																				</g>
																			</g>
																		</g>
																	</g>
																</g>
															</g>
														</g>
													</g>
												</g>
											</g>
											<g>
												<g>
													<g>
														<g>
															<g>
																<g>
																	<g>
																		<g>
																			<g>
																				<g>
																					<g>
																						<g>
																							<g>
																								<g>
																									<g>
																										<g>
																											<path style="fill:#263238;" d="M95.04,156.59c0.03,0.3-0.2,0.57-0.51,0.61
																												c-0.31,0.04-0.59-0.17-0.62-0.47c-0.03-0.3,0.2-0.57,0.51-0.61C94.73,156.08,95.01,156.29,95.04,156.59z
																												"/>
																										</g>
																									</g>
																								</g>
																							</g>
																						</g>
																					</g>
																				</g>
																			</g>
																		</g>
																	</g>
																	<g>
																		<g>
																			<g>
																				<g>
																					<g>
																						<g>
																							<g>
																								<g>
																									<g>
																										<g>
																											<g>
																												<path style="fill:#263238;" d="M95.6,155.18c-0.07,0.08-0.52-0.21-1.13-0.17
																													c-0.61,0.03-1.04,0.38-1.11,0.31c-0.03-0.03,0.03-0.17,0.21-0.32c0.18-0.15,0.5-0.31,0.88-0.34
																													c0.38-0.02,0.71,0.1,0.9,0.23C95.56,155.01,95.63,155.14,95.6,155.18z"/>
																											</g>
																										</g>
																									</g>
																								</g>
																							</g>
																						</g>
																					</g>
																				</g>
																			</g>
																		</g>
																	</g>
																</g>
																<g>
																	<g>
																		<g>
																			<g>
																				<g>
																					<g>
																						<g>
																							<g>
																								<g>
																									<g>
																										<g>
																											<path style="fill:#263238;" d="M89.28,157c0.03,0.3-0.2,0.57-0.51,0.61c-0.31,0.04-0.59-0.17-0.62-0.47
																												c-0.03-0.3,0.2-0.57,0.51-0.61C88.97,156.49,89.25,156.7,89.28,157z"/>
																										</g>
																									</g>
																								</g>
																							</g>
																						</g>
																					</g>
																				</g>
																			</g>
																		</g>
																	</g>
																	<g>
																		<g>
																			<g>
																				<g>
																					<g>
																						<g>
																							<g>
																								<g>
																									<g>
																										<g>
																											<g>
																												<path style="fill:#263238;" d="M89.61,155.69c-0.07,0.08-0.52-0.21-1.13-0.17
																													c-0.61,0.03-1.04,0.38-1.11,0.31c-0.03-0.03,0.03-0.17,0.21-0.32c0.18-0.15,0.5-0.31,0.88-0.34
																													c0.38-0.02,0.71,0.1,0.9,0.23C89.57,155.53,89.64,155.66,89.61,155.69z"/>
																											</g>
																										</g>
																									</g>
																								</g>
																							</g>
																						</g>
																					</g>
																				</g>
																			</g>
																		</g>
																	</g>
																</g>
																<g>
																	<g>
																		<g>
																			<g>
																				<g>
																					<g>
																						<g>
																							<g>
																								<g>
																									<g>
																										<g>
																											<path style="fill:#263238;" d="M92.13,160.07c-0.01-0.03,0.37-0.13,0.98-0.24
																												c0.15-0.03,0.3-0.07,0.32-0.18c0.03-0.11-0.05-0.28-0.13-0.45c-0.17-0.37-0.35-0.75-0.54-1.15
																												c-0.75-1.65-1.31-3-1.24-3.03c0.07-0.03,0.73,1.28,1.48,2.93c0.18,0.41,0.36,0.79,0.52,1.16
																												c0.07,0.17,0.19,0.37,0.12,0.61c-0.03,0.12-0.14,0.21-0.24,0.24c-0.1,0.04-0.19,0.04-0.26,0.05
																												C92.51,160.07,92.13,160.1,92.13,160.07z"/>
																										</g>
																									</g>
																								</g>
																							</g>
																						</g>
																					</g>
																				</g>
																			</g>
																		</g>
																	</g>
																</g>
															</g>
														</g>
													</g>
													<g>
														<g>
															<g>
																<g>
																	<g>
																		<g>
																			<g>
																				<g>
																					<g>
																						<g>
																							<path style="fill:#263238;" d="M89.61,153.29c-0.05,0.17-0.66,0.13-1.37,0.27
																								c-0.71,0.12-1.28,0.37-1.38,0.23c-0.05-0.07,0.04-0.23,0.27-0.41c0.22-0.18,0.58-0.35,1.01-0.43
																								c0.43-0.08,0.82-0.03,1.09,0.05C89.49,153.09,89.63,153.21,89.61,153.29z"/>
																						</g>
																					</g>
																				</g>
																			</g>
																		</g>
																	</g>
																</g>
															</g>
														</g>
													</g>
													<g>
														<g>
															<g>
																<g>
																	<g>
																		<g>
																			<g>
																				<g>
																					<g>
																						<g>
																							<path style="fill:#263238;" d="M95.25,153.43c-0.1,0.15-0.53,0.03-1.03,0.06c-0.51,0.01-0.93,0.16-1.03,0.02
																								c-0.05-0.07,0.01-0.21,0.19-0.35c0.18-0.14,0.48-0.27,0.82-0.28c0.35-0.01,0.66,0.09,0.84,0.22
																								C95.23,153.22,95.3,153.36,95.25,153.43z"/>
																						</g>
																					</g>
																				</g>
																			</g>
																		</g>
																	</g>
																</g>
															</g>
														</g>
													</g>
												</g>
											</g>
										</g>
									</g>
								</g>
								<g>
									<g>
										<g>
											<g>
												<g>
													<g>
														<g>
															<g>
																<g>
																	<g>
																		<g>
																			<path style="fill:#FFBE9D;" d="M83.29,158.21c-0.07-0.02-2.78-0.62-2.51,2.08c0.27,2.71,3.2,1.82,3.2,1.75
																				C83.98,161.96,83.29,158.21,83.29,158.21z"/>
																		</g>
																	</g>
																</g>
															</g>
														</g>
													</g>
												</g>
											</g>
										</g>
									</g>
									<g>
										<g>
											<g>
												<g>
													<g>
														<g>
															<g>
																<g>
																	<g>
																		<g>
																			<g>
																				<path style="fill:#EB996E;" d="M82.78,161.15c-0.01-0.01-0.04,0.04-0.12,0.08c-0.07,0.04-0.21,0.08-0.35,0.04
																					c-0.3-0.08-0.58-0.51-0.64-0.99c-0.03-0.25,0-0.49,0.07-0.69c0.06-0.21,0.18-0.36,0.32-0.4
																					c0.14-0.05,0.25,0.03,0.29,0.1c0.04,0.07,0.03,0.13,0.05,0.13c0.01,0.01,0.05-0.05,0.02-0.16
																					c-0.02-0.05-0.05-0.11-0.12-0.16c-0.07-0.05-0.17-0.06-0.27-0.04c-0.21,0.04-0.38,0.25-0.45,0.47
																					c-0.09,0.22-0.12,0.49-0.09,0.77c0.07,0.54,0.4,1.03,0.8,1.1c0.2,0.03,0.35-0.04,0.42-0.11
																					C82.78,161.22,82.79,161.16,82.78,161.15z"/>
																			</g>
																		</g>
																	</g>
																</g>
															</g>
														</g>
													</g>
												</g>
											</g>
										</g>
									</g>
								</g>
								<g>
									<g>
										<g>
											<path style="fill:#263238;" d="M96.12,149.48c-0.19,1.08-2.37,2.06-4.18,2.01c-1.67-0.05-2.5-0.88-3.71-1.47
												c-0.77-0.37-0.77-0.37-1.81-0.2c-0.84,0.14-1.28,1.13-1.75,1.84c0.9,1.97,0.54,4.25,0.16,6.38
												c-0.04,0.24-0.09,0.49-0.27,0.65c-0.3,0.27-0.8,0.11-1.1-0.17c-0.48-0.44-0.7-1.09-0.85-1.72
												c-0.36-1.44-0.5-2.94-0.27-4.4c0.23-1.46,0.83-2.88,1.83-3.97c1.25-1.36,3.07-2.15,4.92-2.25
												c1.85-0.09,3.7,0.48,5.25,1.49C95.04,148.14,95.71,148.72,96.12,149.48"/>
										</g>
									</g>
								</g>
							</g>
						</g>
						<path style="fill:#EB996E;" d="M92.52,161.44c-0.46-0.21-0.92-0.43-1.38-0.64c-0.08-0.04-0.16-0.07-0.25-0.06
							c-0.1,0.01-0.18,0.09-0.24,0.16c-0.32,0.39-0.4,0.97-0.15,1.41c0.25,0.44,0.83,0.67,1.29,0.48c0.49-0.2,0.73-0.77,0.76-1.3
							L92.52,161.44z"/>
						<g>
							<path style="fill:#263238;" d="M91.84,162.88c0.02,0.03-0.29,0.22-0.81,0.07c-0.25-0.08-0.54-0.27-0.72-0.58
								c-0.18-0.3-0.25-0.74-0.09-1.13c0.07-0.19,0.19-0.37,0.33-0.5c0.07-0.07,0.15-0.12,0.23-0.18c0.09-0.06,0.27-0.07,0.36-0.02
								c0.32,0.18,0.53,0.33,0.74,0.46c0.4,0.27,0.64,0.45,0.62,0.49c-0.02,0.04-0.3-0.08-0.73-0.3c-0.25-0.13-0.5-0.26-0.74-0.38
								c-0.06-0.02-0.05-0.02-0.11,0.01c-0.05,0.04-0.12,0.08-0.17,0.14c-0.11,0.11-0.2,0.24-0.25,0.39
								c-0.12,0.3-0.08,0.63,0.05,0.88c0.13,0.26,0.34,0.42,0.54,0.51C91.52,162.92,91.83,162.83,91.84,162.88z"/>
						</g>
						<g>
							<path style="fill:#263238;" d="M91.41,156.66c-0.03,0-0.03-0.25-0.15-0.68c-0.12-0.42-0.41-1.02-1.04-1.48
								c-0.61-0.46-1.6-0.72-2.56-0.36c-0.95,0.33-1.77,1.34-1.76,2.52c-0.01,1.18,0.81,2.19,1.76,2.52
								c0.96,0.36,1.95,0.1,2.56-0.36c0.63-0.46,0.92-1.07,1.04-1.48C91.38,156.91,91.37,156.65,91.41,156.66
								c0.01,0,0.02,0.06,0.02,0.18c0.01,0.12,0,0.3-0.05,0.52c-0.09,0.44-0.36,1.11-1.02,1.63c-0.64,0.52-1.72,0.84-2.79,0.46
								c-1.06-0.35-1.98-1.47-1.97-2.79c-0.01-1.32,0.91-2.44,1.97-2.79c1.07-0.38,2.15-0.07,2.79,0.46
								c0.66,0.52,0.93,1.19,1.02,1.63c0.05,0.22,0.06,0.4,0.05,0.52C91.42,156.59,91.42,156.66,91.41,156.66z"/>
						</g>
						<g>
							<path style="fill:#263238;" d="M98.16,156.39c-0.03,0-0.03-0.25-0.15-0.66c-0.12-0.4-0.4-0.99-1.01-1.44
								c-0.59-0.45-1.56-0.7-2.49-0.35c-0.92,0.32-1.72,1.3-1.71,2.45c-0.01,1.15,0.79,2.13,1.71,2.45c0.93,0.35,1.9,0.1,2.49-0.35
								c0.61-0.45,0.89-1.04,1.01-1.44C98.13,156.64,98.13,156.39,98.16,156.39c0.01,0,0.02,0.06,0.02,0.18
								c0.01,0.12,0,0.29-0.05,0.51c-0.09,0.43-0.35,1.08-0.99,1.59c-0.62,0.51-1.68,0.82-2.72,0.45c-1.03-0.34-1.94-1.44-1.92-2.72
								c-0.01-1.29,0.89-2.38,1.92-2.72c1.04-0.37,2.1-0.07,2.72,0.45c0.64,0.51,0.91,1.16,0.99,1.59c0.05,0.22,0.06,0.39,0.05,0.51
								C98.17,156.33,98.17,156.39,98.16,156.39z"/>
						</g>
						<g>
							<path style="fill:#263238;" d="M92.65,155.77c-0.06,0.06-0.33-0.12-0.69-0.1c-0.36,0-0.62,0.18-0.69,0.13
								c-0.08-0.04,0.17-0.43,0.68-0.44C92.46,155.34,92.73,155.72,92.65,155.77z"/>
						</g>
						<g>
							<path style="fill:#263238;" d="M85.92,156.25c0.05,0.07-0.47,0.55-1.17,1.07c-0.7,0.52-1.31,0.89-1.36,0.82
								c-0.05-0.07,0.47-0.55,1.17-1.07C85.26,156.55,85.87,156.18,85.92,156.25z"/>
						</g>
					</g>
				</g>
				<g>
					<path style="fill:#263238;" d="M141.71,156.52c0,0.09-6.95,0.16-15.53,0.16c-8.58,0-15.53-0.07-15.53-0.16
						c0-0.09,6.95-0.16,15.53-0.16C134.76,156.36,141.71,156.43,141.71,156.52z"/>
				</g>
				<g>
					<path style="fill:#263238;" d="M127.35,159.77c0,0.09-3.69,0.16-8.25,0.16c-4.56,0-8.25-0.07-8.25-0.16
						c0-0.09,3.69-0.16,8.25-0.16C123.66,159.61,127.35,159.68,127.35,159.77z"/>
				</g>
			</g>
		</g>
		<g>
			<path style="fill:#A2A1F5;" d="M234.77,180.54c0,0,8.26,4.02,11.15,14.41c2.9,10.39,11.78,37.44,11.78,37.44
				s5.07,5.97,5.62,10.39c0.54,4.42-0.54,15.11-2.17,17.1c-1.63,1.99-3.96,1.66-3.96,1.66l-21.36-2.03l-8.41-56.31L234.77,180.54z"
				/>
			<path style="fill:#A2A1F5;" d="M164.15,179.55c0,0-15.27,4.79-19.08,8.96l12.5,58.17l-0.2,18.35h72.39
				c0-0.91,0.65-60.94,0.65-60.94l4.35-23.56l-25.73-4.53l-5.07-3.99l-28.63,1.45l-4.35,4.35L164.15,179.55z"/>
			<g style="opacity:0.3;">
				<path d="M169.95,230.01c-0.22-0.49-0.54-1.03-1.07-1.14c-0.87-0.18-1.46,0.85-1.75,1.69c-2.35,6.66-5.46,12.78-9.51,18.57
					l-0.19,8.93c4.22-3.55,8.38-7.36,11.07-12.17C171.19,241.08,172.22,235.04,169.95,230.01z"/>
			</g>
			<path style="fill:#A2A1F5;" d="M145.07,188.51c0,0-5.03,6.86-7.12,11.34c-2.09,4.48-19.4,42.09-20.45,45.97
				c-1.04,3.88-3.73,16.12,4.18,18.95h16.27l16.33-33.02l0.84-38.32L145.07,188.51z"/>
			<g>
				<path style="fill:#263238;" d="M138.99,240.91c-0.02,0.02-0.36-0.32-1.11-0.75c-0.75-0.42-1.91-0.91-3.41-1.24
					c-0.75-0.16-1.59-0.29-2.49-0.35c-0.9-0.06-1.87-0.04-2.85,0.19c-1.97,0.44-3.93,1.69-5.48,3.44c-1.57,1.75-2.53,3.82-3.1,5.76
					c-0.58,1.95-0.82,3.79-0.98,5.32c-0.15,1.54-0.21,2.79-0.26,3.66c-0.03,0.4-0.05,0.73-0.06,1c-0.02,0.23-0.03,0.35-0.04,0.35
					c-0.01,0-0.02-0.12-0.02-0.35c0-0.26,0-0.59,0-1c0.02-0.87,0.04-2.12,0.16-3.67c0.13-1.55,0.35-3.4,0.92-5.38
					c0.56-1.98,1.54-4.1,3.14-5.89c1.58-1.79,3.6-3.07,5.65-3.51c1.02-0.23,2.02-0.23,2.93-0.16c0.92,0.07,1.76,0.21,2.52,0.39
					c1.52,0.36,2.69,0.89,3.43,1.35c0.37,0.23,0.64,0.44,0.81,0.6C138.92,240.82,139,240.91,138.99,240.91z"/>
			</g>
			<g>
				<path style="fill:#263238;" d="M131.28,234.34c0-0.02,0.19-0.05,0.55-0.09c0.35-0.04,0.87-0.05,1.51-0.02
					c0.64,0.03,1.39,0.14,2.22,0.33c0.82,0.21,1.71,0.5,2.59,0.92c0.88,0.43,1.67,0.93,2.35,1.44c0.67,0.52,1.23,1.04,1.65,1.52
					c0.43,0.47,0.74,0.88,0.93,1.19c0.2,0.3,0.29,0.47,0.28,0.48c-0.05,0.03-0.49-0.62-1.37-1.51c-0.44-0.45-1-0.94-1.66-1.44
					c-0.67-0.48-1.45-0.97-2.31-1.38c-0.87-0.41-1.73-0.7-2.53-0.92c-0.8-0.2-1.54-0.33-2.17-0.39
					C132.07,234.33,131.28,234.4,131.28,234.34z"/>
			</g>
			<g>
				<path style="fill:#263238;" d="M145.99,232.53c0,0.02-0.27,0-0.75-0.06c-0.48-0.06-1.18-0.13-2.04-0.2
					c-1.72-0.13-4.11-0.16-6.73,0.15c-2.62,0.32-4.93,0.91-6.58,1.44c-0.82,0.27-1.48,0.5-1.93,0.67c-0.45,0.17-0.71,0.25-0.72,0.23
					c-0.01-0.02,0.23-0.14,0.67-0.35c0.44-0.21,1.09-0.47,1.91-0.77c1.63-0.59,3.97-1.23,6.61-1.54c2.64-0.31,5.06-0.25,6.79-0.06
					c0.86,0.09,1.56,0.2,2.04,0.3C145.73,232.45,145.99,232.51,145.99,232.53z"/>
			</g>
			<g>
				<path style="fill:#263238;" d="M192.32,200.4c-0.01,0-0.06-0.06-0.17-0.2c-0.12-0.16-0.26-0.35-0.44-0.59
					c-0.4-0.55-0.95-1.31-1.64-2.27c-1.4-1.98-3.36-4.74-5.67-7.99l0.25-0.04c-0.88,2.57-1.84,5.41-2.86,8.4l-0.06,0.19l-0.16-0.11
					c-0.11-0.07-0.22-0.14-0.34-0.22c-1.35-0.85-2.53-1.88-3.54-2.99c-1-1.12-1.84-2.31-2.53-3.5c-1.38-2.38-2.22-4.74-2.78-6.73
					c-0.56-2-0.86-3.65-1.05-4.79c-0.09-0.55-0.17-0.98-0.23-1.31c-0.03-0.15-0.06-0.26-0.08-0.34c-0.03-0.07-0.04-0.11-0.04-0.11
					c0.07-0.03,0.24,0.6,0.46,1.74c0.23,1.13,0.56,2.77,1.15,4.75c0.59,1.97,1.44,4.3,2.82,6.64c0.69,1.17,1.52,2.34,2.51,3.44
					c0.99,1.09,2.16,2.1,3.48,2.93c0.11,0.07,0.23,0.15,0.33,0.21l-0.23,0.08c1.03-2.99,2-5.82,2.89-8.39l0.09-0.27l0.16,0.23
					c2.27,3.28,4.19,6.06,5.57,8.06c0.66,0.97,1.19,1.75,1.57,2.31c0.17,0.25,0.3,0.46,0.41,0.62
					C192.28,200.32,192.33,200.4,192.32,200.4z"/>
			</g>
			<g style="opacity:0.3;">
				<path d="M211.17,228.17c-0.67,6.72,0.81,13.65,4.18,19.51c3.37,5.86,8.3,11.08,14.45,13.88c0.2-5.97-0.09-13,0.11-18.97
					L211.17,228.17z"/>
			</g>
			<g>
				<path style="fill:#FFBE9D;" d="M210.49,220.31c0,0-2.63,0.73-0.66,6.12c1.97,5.39,2.63,5.06,3.94,10.1
					c1.31,5.04,2.85,9.64,5.15,12.49c2.3,2.85,10.85,8.66,10.85,8.66l7.67-7.23c0,0-1.26-5.39-0.96-9.05
					c0.3-3.66,1.07-12.64,0.96-14.18c-0.11-1.53-1.75-5.26-1.75-5.26v-2.55l-3.94-12.13c0,0-2.19-0.99-2.96,2.52l-1.31-3.72
					c0,0-2.08-0.33-2.63,3.94c-0.55,4.27,0.44,10.19,0.44,10.19l-1.1,7.45l-1.64,5.04l-1.42,0.22c0,0-2.14-0.59-3.32-4.62
					C216.62,224.25,213.44,219.43,210.49,220.31z"/>
				<g>
					<path style="fill:#EB996E;" d="M234.87,239.37c-0.01,0-0.02-0.09-0.04-0.28c-0.01-0.21-0.03-0.47-0.06-0.8
						c-0.04-0.73-0.09-1.75-0.16-3.02c-0.12-2.62-0.28-6.26-0.47-10.51l0.03,0.09c-0.35-0.42-0.98-0.55-1.55-0.4
						c-0.58,0.14-1.1,0.5-1.42,1.04c-0.67,1.08-0.71,2.48-0.92,3.84c-0.42,3.07-0.81,6-1.17,8.66c-0.18,1.33-0.38,2.6-0.63,3.77
						c-0.25,1.17-0.61,2.24-0.95,3.2c-0.34,0.96-0.64,1.82-0.83,2.6c-0.19,0.78-0.26,1.47-0.25,2.03c0.02,1.13,0.35,1.71,0.3,1.72
						c-0.01,0-0.07-0.14-0.18-0.42c-0.09-0.29-0.22-0.72-0.24-1.29c-0.03-0.57,0.02-1.28,0.2-2.07c0.17-0.79,0.46-1.67,0.79-2.64
						c0.33-0.96,0.67-2.01,0.91-3.18c0.25-1.16,0.43-2.42,0.6-3.75c0.35-2.67,0.74-5.59,1.15-8.66c0.1-0.68,0.17-1.36,0.29-2.04
						c0.12-0.67,0.31-1.34,0.68-1.93c0.35-0.59,0.96-1.02,1.61-1.17c0.64-0.16,1.41-0.02,1.85,0.51l0.03,0.04l0,0.05
						c0.15,4.25,0.27,7.89,0.36,10.51c0.03,1.27,0.06,2.29,0.08,3.02c0,0.33,0.01,0.6,0.01,0.8
						C234.88,239.27,234.88,239.37,234.87,239.37z"/>
				</g>
				<g>
					<path style="fill:#EB996E;" d="M230.68,225.56c-0.02,0.01-0.14-0.23-0.32-0.69c-0.18-0.45-0.42-1.12-0.64-1.96
						c-0.22-0.84-0.43-1.87-0.55-3.02c-0.06-0.57-0.1-1.19-0.03-1.83c0.07-0.63,0.25-1.31,0.66-1.88c0.35-0.49,0.84-0.89,1.4-1.05
						l0.12-0.03l0.06,0.11c1.11,1.96,2.08,3.69,2.75,4.93c0.31,0.58,0.57,1.07,0.79,1.47c0.18,0.35,0.27,0.54,0.25,0.55
						c-0.02,0.01-0.14-0.17-0.35-0.5c-0.23-0.39-0.52-0.86-0.87-1.42c-0.73-1.22-1.72-2.93-2.85-4.88l0.18,0.07
						c-0.48,0.14-0.92,0.49-1.23,0.94c-0.37,0.52-0.55,1.13-0.61,1.73c-0.07,0.6-0.04,1.2,0.02,1.77c0.1,1.14,0.28,2.15,0.48,2.99
						c0.19,0.84,0.4,1.51,0.54,1.98C230.62,225.29,230.7,225.55,230.68,225.56z"/>
				</g>
				<g>
					<path style="fill:#EB996E;" d="M228.85,226.55c-0.02,0-0.05-0.25-0.07-0.7c-0.02-0.52-0.05-1.15-0.08-1.91
						c-0.05-1.61-0.1-3.84-0.14-6.29c-0.02-2.46-0.11-4.69,0.1-6.31c0.1-0.81,0.26-1.45,0.41-1.88c0.15-0.43,0.27-0.65,0.28-0.65
						c0.05,0.02-0.33,0.95-0.47,2.55c-0.15,1.59-0.02,3.82,0,6.28c0.04,2.46,0.05,4.68,0.05,6.3c-0.01,0.75-0.02,1.39-0.02,1.91
						C228.88,226.3,228.87,226.55,228.85,226.55z"/>
				</g>
				<g>
					<path style="fill:#EB996E;" d="M222.36,246.75c-0.04-0.04,0.44-0.6,1.03-1.63c0.3-0.51,0.61-1.15,0.89-1.87
						c0.27-0.73,0.52-1.55,0.68-2.44c0.15-0.89,0.21-1.74,0.21-2.53c-0.01-0.78-0.08-1.48-0.18-2.06c-0.2-1.17-0.45-1.86-0.4-1.88
						c0.02-0.01,0.1,0.16,0.22,0.47c0.13,0.31,0.27,0.78,0.39,1.37c0.13,0.59,0.22,1.3,0.25,2.1c0.02,0.8-0.03,1.68-0.19,2.59
						c-0.17,0.91-0.43,1.75-0.72,2.49c-0.31,0.74-0.64,1.38-0.97,1.88c-0.33,0.51-0.62,0.9-0.85,1.14
						C222.51,246.63,222.38,246.76,222.36,246.75z"/>
				</g>
				<path style="fill:#FFBE9D;" d="M235.82,242.98l6.66,2.31c0,0,6.35-3.29,10.74,0c4.38,3.29,8.19,11.95,6.98,15.46
					c0,0-3.02,3.73-5.33,4.28c-2.3,0.55-11.25-1.62-14.97-2.4c-3.73-0.79-10.14-4.95-10.14-4.95L235.82,242.98z"/>
				<g>
					<path style="fill:#EB996E;" d="M236.64,252.79c-0.02,0-0.05-0.21-0.07-0.59c-0.03-0.45-0.06-0.99-0.09-1.61
						c-0.07-1.36-0.16-3.24-0.19-5.31c-0.03-2.08,0.03-3.96,0.15-5.32c0.06-0.68,0.13-1.23,0.2-1.6c0.07-0.38,0.12-0.58,0.14-0.58
						c0.05,0.01-0.05,0.84-0.12,2.2c-0.07,1.35-0.09,3.23-0.06,5.3c0.04,2.03,0.07,3.87,0.1,5.31c0.01,0.68,0.01,1.23,0,1.61
						C236.68,252.58,236.66,252.79,236.64,252.79z"/>
				</g>
			</g>
			<g>
				<path style="fill:#263238;" d="M258.59,245.03c-0.05,0.05-0.73-0.9-2.21-2c-1.46-1.09-3.83-2.26-6.63-2.42
					c-2.81-0.15-5.29,0.75-6.86,1.67c-1.59,0.93-2.37,1.79-2.42,1.74c-0.01-0.01,0.17-0.23,0.55-0.59c0.38-0.36,0.96-0.84,1.76-1.34
					c1.57-0.99,4.1-1.95,6.99-1.79c2.88,0.16,5.3,1.39,6.75,2.55c0.74,0.58,1.27,1.12,1.6,1.52
					C258.44,244.78,258.6,245.02,258.59,245.03z"/>
			</g>
			<g>
				<path style="fill:#263238;" d="M257.73,239.48c-0.04,0.06-0.93-0.83-2.77-1.53c-1.81-0.71-4.61-1.04-7.49-0.22
					c-1.44,0.4-2.75,0.98-3.88,1.61c-1.12,0.64-2.06,1.35-2.81,1.98c-0.75,0.64-1.32,1.19-1.71,1.58c-0.39,0.39-0.61,0.6-0.63,0.59
					c-0.01-0.01,0.17-0.26,0.54-0.67c0.37-0.41,0.92-1,1.65-1.66c0.73-0.67,1.67-1.4,2.81-2.07c1.14-0.66,2.47-1.26,3.94-1.66
					c2.95-0.83,5.83-0.46,7.66,0.32c0.92,0.38,1.61,0.81,2.05,1.16c0.23,0.16,0.38,0.32,0.49,0.41
					C257.69,239.42,257.74,239.47,257.73,239.48z"/>
			</g>
			<g>
				<path style="fill:#263238;" d="M257.79,234.67c-0.02,0.06-1.18-0.29-3.11-0.56c-0.97-0.14-2.12-0.21-3.41-0.22
					c-1.29,0.02-2.7,0.12-4.16,0.37c-1.46,0.27-2.83,0.65-4.04,1.07c-1.21,0.44-2.27,0.91-3.13,1.37c-1.73,0.91-2.7,1.64-2.74,1.58
					c-0.01-0.02,0.22-0.21,0.67-0.53c0.22-0.17,0.49-0.36,0.83-0.57c0.33-0.21,0.7-0.46,1.14-0.68c0.86-0.49,1.92-0.98,3.14-1.44
					c1.23-0.44,2.61-0.84,4.09-1.11c1.48-0.25,2.92-0.35,4.22-0.35c1.3,0.02,2.47,0.12,3.44,0.29c0.49,0.06,0.92,0.17,1.3,0.25
					c0.38,0.08,0.71,0.17,0.97,0.25C257.51,234.55,257.79,234.65,257.79,234.67z"/>
			</g>
			<g>
				<path style="fill:#263238;" d="M206.79,175.81c0,0,0.31,0.58,0.46,1.77c0.16,1.19,0.14,2.96-0.25,5.16
					c-0.2,1.1-0.46,2.31-0.86,3.6c-0.41,1.29-1.04,2.61-1.75,4c-1.43,2.76-3.24,5.78-5.33,8.99l-0.24,0.38l0-0.45
					c0-2.12-0.01-4.35-0.01-6.67l0.23,0.11c-1.79,1.44-3.67,2.97-5.61,4.53l0.05-0.07c-1.3,4.12-2.16,8.71-2.5,13.49
					c-0.55,7.32-0.11,14.31,0.24,20.66c0.3,6.36,0.49,12.08,0.69,16.89c0.19,4.81,0.36,8.69,0.51,11.38
					c0.08,1.33,0.14,2.37,0.18,3.09c0.02,0.34,0.04,0.61,0.05,0.8c0.01,0.18,0.01,0.27,0.01,0.27s-0.02-0.09-0.04-0.27
					c-0.02-0.19-0.05-0.46-0.08-0.8c-0.07-0.71-0.15-1.75-0.24-3.09c-0.18-2.68-0.39-6.57-0.61-11.38
					c-0.21-4.81-0.47-10.53-0.75-16.88c-0.36-6.34-0.81-13.35-0.26-20.7c0.34-4.8,1.21-9.42,2.52-13.56l0.01-0.04l0.04-0.03
					c1.94-1.56,3.83-3.08,5.62-4.52l0.23-0.19l0,0.3c0,2.32-0.01,4.55-0.01,6.67l-0.24-0.07c4.13-6.4,7.49-11.97,8-16.47
					c0.41-2.18,0.46-3.95,0.32-5.13c-0.06-0.59-0.17-1.03-0.25-1.33C206.83,175.96,206.79,175.81,206.79,175.81z"/>
			</g>
			<path style="fill:#FFFFFF;" d="M196.01,253.35l-0.21-0.01c-0.87,0.02-1.64,0.82-1.65,1.69c0,0.87,0.77,1.67,1.64,1.7
				c0.87,0.03,1.69-0.71,1.75-1.58C197.6,254.28,196.88,253.43,196.01,253.35z"/>
			<g>
				<path style="fill:#FFFFFF;" d="M196.01,230.18l-0.21-0.01c-0.87,0.02-1.64,0.82-1.65,1.69c0,0.87,0.77,1.67,1.64,1.7
					c0.87,0.03,1.69-0.71,1.75-1.58C197.6,231.11,196.88,230.26,196.01,230.18z"/>
				<path style="fill:#FFFFFF;" d="M195.79,209.45c0.87,0.03,1.69-0.71,1.75-1.58c0.06-0.87-0.66-1.71-1.53-1.8l-0.21-0.01
					c-0.87,0.02-1.64,0.82-1.65,1.69C194.15,208.62,194.92,209.42,195.79,209.45z"/>
			</g>
			<g>
				<g>
					<g>
						<path style="fill:#263238;" d="M169.84,148.66c-2.11-2.33-4.23-4.69-5.77-7.43c-1.54-2.74-2.45-5.94-1.94-9.05
							c0.3-1.81,1.07-3.54,1.19-5.38c0.17-2.52-0.89-5.16,0-7.53c1.4-3.7,6.38-4.27,9.39-6.82c2.35-1.99,3.5-5.22,6.08-6.89
							c2.26-1.46,5.16-1.43,7.82-1.05c2.66,0.38,5.34,1.05,8.01,0.69c1.9-0.26,3.69-1.02,5.55-1.49c1.86-0.46,3.94-0.58,5.6,0.38
							c1.66,0.96,2.59,3.32,1.5,4.9c3.09-1.42,7.01,0.98,7.86,4.28c0.85,3.3-0.85,6.86-3.47,9.03c-2.62,2.17-6,3.18-9.35,3.81
							c-9.47,1.78-19.73,0.78-27.89-4.35"/>
					</g>
					<g>
						<g>
							<g>
								<g>
									<g>
										<g>
											<g>
												<g>
													<g>
														<g>
															<g>
																<g>
																	<g>
																		<g>
																			<g>
																				<g>
																					<g>
																						<path style="fill:#FFBE9D;" d="M203.12,180.49c-0.46-3.58-0.84-6.57-0.86-6.94c0,0,11.97-2.69,11.32-14.8
																							c-0.32-5.85-1.96-17.85-3.56-28.69c-1.73-11.64-12.12-19.99-23.86-19.21l-1.17,0.08
																							c-12.54,1.58-18.2,13.11-16.28,25.6l6.77,41.88c0,0,2.89,9.26,9.06,10.87l7.79,11.13l1.29-4.79l5.81-5.06
																							c0,0,1.33-1.44,2.86-4.26C203.53,183.98,203.27,181.61,203.12,180.49z"/>
																					</g>
																				</g>
																			</g>
																		</g>
																	</g>
																</g>
															</g>
														</g>
													</g>
												</g>
												<g>
													<g>
														<g>
															<g>
																<g>
																	<g>
																		<g>
																			<g>
																				<g>
																					<g>
																						<path style="fill:#EB996E;" d="M202.26,173.37c0,0-7.6,1.13-16.07-3.43c0,0,4.31,8.46,16.31,6.56
																							L202.26,173.37z"/>
																					</g>
																				</g>
																			</g>
																		</g>
																	</g>
																</g>
															</g>
														</g>
													</g>
												</g>
											</g>
										</g>
									</g>
									<g>
										<g>
											<g>
												<g>
													<g>
														<g>
															<g>
																<g>
																	<g>
																		<g>
																			<g>
																				<g>
																					<g>
																						<g>
																							<g>
																								<g>
																									<path style="fill:#263238;" d="M206.11,140.46c0.09,0.91-0.6,1.74-1.55,1.85
																										c-0.95,0.11-1.79-0.53-1.89-1.44c-0.09-0.91,0.6-1.74,1.55-1.86C205.17,138.9,206.02,139.55,206.11,140.46
																										z"/>
																								</g>
																							</g>
																						</g>
																					</g>
																				</g>
																			</g>
																		</g>
																	</g>
																</g>
															</g>
															<g>
																<g>
																	<g>
																		<g>
																			<g>
																				<g>
																					<g>
																						<g>
																							<g>
																								<g>
																									<g>
																										<path style="fill:#263238;" d="M207.8,136.17c-0.2,0.24-1.57-0.64-3.43-0.51
																											c-1.86,0.1-3.16,1.15-3.38,0.94c-0.11-0.09,0.08-0.52,0.65-0.99c0.56-0.47,1.53-0.96,2.68-1.03
																											c1.16-0.07,2.16,0.29,2.75,0.69C207.68,135.66,207.9,136.06,207.8,136.17z"/>
																									</g>
																								</g>
																							</g>
																						</g>
																					</g>
																				</g>
																			</g>
																		</g>
																	</g>
																</g>
															</g>
														</g>
														<g>
															<g>
																<g>
																	<g>
																		<g>
																			<g>
																				<g>
																					<g>
																						<g>
																							<g>
																								<g>
																									<path style="fill:#263238;" d="M188.55,141.71c0.09,0.91-0.6,1.74-1.55,1.85
																										c-0.95,0.11-1.79-0.53-1.89-1.44c-0.09-0.91,0.6-1.74,1.55-1.86C187.61,140.16,188.45,140.8,188.55,141.71
																										z"/>
																								</g>
																							</g>
																						</g>
																					</g>
																				</g>
																			</g>
																		</g>
																	</g>
																</g>
															</g>
															<g>
																<g>
																	<g>
																		<g>
																			<g>
																				<g>
																					<g>
																						<g>
																							<g>
																								<g>
																									<g>
																										<path style="fill:#263238;" d="M189.55,137.74c-0.2,0.24-1.57-0.64-3.43-0.51
																											c-1.86,0.1-3.16,1.15-3.38,0.94c-0.11-0.09,0.08-0.51,0.65-0.99c0.56-0.47,1.53-0.96,2.68-1.03
																											c1.16-0.07,2.16,0.29,2.75,0.69C189.42,137.23,189.65,137.63,189.55,137.74z"/>
																									</g>
																								</g>
																							</g>
																						</g>
																					</g>
																				</g>
																			</g>
																		</g>
																	</g>
																</g>
															</g>
														</g>
														<g>
															<g>
																<g>
																	<g>
																		<g>
																			<g>
																				<g>
																					<g>
																						<g>
																							<g>
																								<g>
																									<path style="fill:#263238;" d="M197.22,151.07c-0.02-0.11,1.13-0.38,2.98-0.75
																										c0.47-0.08,0.91-0.21,0.97-0.53c0.09-0.35-0.14-0.85-0.41-1.39c-0.52-1.12-1.07-2.29-1.65-3.52
																										c-2.29-5.02-3.99-9.15-3.79-9.25c0.2-0.09,2.23,3.9,4.52,8.92c0.55,1.24,1.08,2.42,1.59,3.55
																										c0.22,0.53,0.57,1.12,0.37,1.85c-0.1,0.36-0.44,0.64-0.73,0.75c-0.3,0.11-0.56,0.14-0.8,0.17
																										C198.4,151.09,197.23,151.18,197.22,151.07z"/>
																								</g>
																							</g>
																						</g>
																					</g>
																				</g>
																			</g>
																		</g>
																	</g>
																</g>
															</g>
														</g>
													</g>
												</g>
											</g>
											<g>
												<g>
													<g>
														<g>
															<g>
																<g>
																	<g>
																		<g>
																			<g>
																				<g>
																					<path style="fill:#263238;" d="M189.54,130.42c-0.15,0.52-2.02,0.4-4.19,0.81c-2.17,0.37-3.89,1.12-4.21,0.69
																						c-0.14-0.21,0.13-0.7,0.81-1.24c0.67-0.54,1.77-1.08,3.07-1.31c1.3-0.23,2.51-0.1,3.33,0.17
																						C189.17,129.8,189.6,130.17,189.54,130.42z"/>
																				</g>
																			</g>
																		</g>
																	</g>
																</g>
															</g>
														</g>
													</g>
												</g>
											</g>
											<g>
												<g>
													<g>
														<g>
															<g>
																<g>
																	<g>
																		<g>
																			<g>
																				<g>
																					<path style="fill:#263238;" d="M206.76,130.83c-0.3,0.44-1.61,0.09-3.15,0.17c-1.54,0.03-2.83,0.47-3.16,0.05
																						c-0.15-0.21,0.03-0.64,0.57-1.08c0.53-0.44,1.45-0.82,2.51-0.86c1.06-0.04,2,0.28,2.57,0.68
																						C206.68,130.19,206.89,130.62,206.76,130.83z"/>
																				</g>
																			</g>
																		</g>
																	</g>
																</g>
															</g>
														</g>
													</g>
												</g>
											</g>
										</g>
									</g>
								</g>
							</g>
						</g>
						<g>
							<g>
								<g>
									<g>
										<g>
											<g>
												<g>
													<g>
														<g>
															<g>
																<g>
																	<path style="fill:#FFBE9D;" d="M170.29,145.41c-0.21-0.08-8.48-1.9-7.66,6.35c0.82,8.25,9.76,5.56,9.75,5.33
																		C172.37,156.85,170.29,145.41,170.29,145.41z"/>
																</g>
															</g>
														</g>
													</g>
												</g>
											</g>
										</g>
									</g>
								</g>
							</g>
							<g>
								<g>
									<g>
										<g>
											<g>
												<g>
													<g>
														<g>
															<g>
																<g>
																	<g>
																		<path style="fill:#EB996E;" d="M168.72,154.38c-0.04-0.02-0.13,0.11-0.37,0.25c-0.23,0.13-0.63,0.25-1.07,0.13
																			c-0.9-0.23-1.77-1.55-1.96-3.03c-0.1-0.75-0.01-1.48,0.2-2.1c0.19-0.63,0.54-1.09,0.97-1.21
																			c0.43-0.14,0.76,0.09,0.89,0.31c0.13,0.22,0.1,0.39,0.14,0.4c0.03,0.02,0.16-0.16,0.06-0.49
																			c-0.05-0.16-0.17-0.35-0.38-0.48c-0.21-0.14-0.51-0.19-0.82-0.13c-0.63,0.11-1.15,0.75-1.38,1.43
																			c-0.26,0.69-0.38,1.51-0.27,2.35c0.22,1.66,1.22,3.13,2.45,3.36c0.6,0.09,1.06-0.13,1.29-0.35
																			C168.73,154.58,168.75,154.39,168.72,154.38z"/>
																	</g>
																</g>
															</g>
														</g>
													</g>
												</g>
											</g>
										</g>
									</g>
								</g>
							</g>
						</g>
						<g>
							<g>
								<g>
									<path style="fill:#263238;" d="M209.39,118.78c-0.57,3.29-7.23,6.3-12.76,6.13c-5.09-0.15-7.61-2.68-11.31-4.47
										c-2.34-1.14-2.34-1.14-5.52-0.62c-2.57,0.42-3.9,3.45-5.35,5.62c2.75,5.99,1.64,12.96,0.47,19.45
										c-0.13,0.72-0.29,1.49-0.84,1.97c-0.93,0.82-2.43,0.33-3.34-0.51c-1.46-1.34-2.13-3.32-2.6-5.24
										c-1.09-4.38-1.51-8.96-0.82-13.42c0.69-4.46,2.54-8.79,5.58-12.12c3.81-4.16,9.37-6.56,15-6.85
										c5.63-0.29,11.29,1.45,16,4.54C206.11,114.7,208.16,116.47,209.39,118.78"/>
								</g>
							</g>
						</g>
					</g>
				</g>
				<path style="fill:#EB996E;" d="M198.43,155.25c-1.4-0.65-2.8-1.31-4.21-1.96c-0.24-0.11-0.5-0.23-0.77-0.19
					c-0.3,0.04-0.54,0.26-0.73,0.49c-0.98,1.18-1.22,2.97-0.47,4.3c0.76,1.33,2.53,2.04,3.95,1.45c1.49-0.62,2.22-2.35,2.33-3.96
					L198.43,155.25z"/>
				<g>
					<path style="fill:#263238;" d="M196.35,159.64c0.01,0.04-0.19,0.16-0.62,0.25c-0.42,0.08-1.06,0.11-1.81-0.13
						c-0.74-0.24-1.57-0.81-2.09-1.74c-0.52-0.9-0.71-2.17-0.26-3.32c0.22-0.57,0.56-1.07,0.98-1.47c0.21-0.2,0.43-0.37,0.68-0.52
						c0.13-0.07,0.3-0.14,0.49-0.15c0.19-0.01,0.35,0.04,0.49,0.09c0.27,0.12,0.45,0.26,0.66,0.37c0.2,0.12,0.39,0.24,0.57,0.35
						c0.36,0.23,0.7,0.44,1.02,0.64c1.25,0.79,2,1.32,1.95,1.39c-0.04,0.07-0.87-0.32-2.18-1.01c-0.33-0.18-0.69-0.37-1.06-0.57
						c-0.19-0.11-0.39-0.21-0.59-0.33c-0.2-0.11-0.42-0.24-0.59-0.31c-0.19-0.07-0.28-0.06-0.46,0.04
						c-0.18,0.12-0.38,0.27-0.55,0.44c-0.35,0.34-0.63,0.77-0.82,1.25c-0.39,0.97-0.25,2.02,0.18,2.82c0.42,0.81,1.1,1.33,1.74,1.6
						c0.65,0.27,1.23,0.31,1.63,0.31C196.11,159.63,196.33,159.6,196.35,159.64z"/>
				</g>
				<g>
					<path style="fill:#263238;" d="M195.02,140.67c-0.05,0,0.01-0.77-0.33-2.09c-0.33-1.3-1.19-3.2-3.14-4.67
						c-0.97-0.72-2.18-1.33-3.58-1.58c-1.39-0.24-2.96-0.19-4.45,0.38c-0.75,0.26-1.48,0.66-2.14,1.16c-0.67,0.49-1.28,1.1-1.79,1.8
						c-1.04,1.39-1.63,3.17-1.65,5c0.02,1.84,0.6,3.62,1.64,5c0.5,0.7,1.12,1.31,1.79,1.8c0.67,0.5,1.39,0.89,2.14,1.16
						c1.49,0.57,3.06,0.62,4.45,0.38c1.4-0.25,2.62-0.86,3.58-1.58c1.95-1.47,2.81-3.38,3.14-4.67
						C195.03,141.44,194.97,140.66,195.02,140.67c0.01,0,0.01,0.05,0.01,0.14c0,0.11,0,0.25-0.01,0.41c0,0.18-0.01,0.41-0.05,0.67
						c-0.03,0.26-0.07,0.57-0.16,0.9c-0.14,0.68-0.44,1.48-0.93,2.33c-0.49,0.85-1.21,1.74-2.19,2.49
						c-0.98,0.75-2.23,1.39-3.67,1.66c-1.43,0.26-3.05,0.22-4.6-0.36c-0.78-0.27-1.53-0.67-2.22-1.19c-0.7-0.5-1.33-1.13-1.86-1.86
						c-1.08-1.43-1.69-3.28-1.71-5.19c0.02-1.9,0.63-3.75,1.71-5.18c0.52-0.73,1.16-1.35,1.86-1.86c0.69-0.51,1.44-0.92,2.22-1.19
						c1.55-0.58,3.17-0.62,4.6-0.36c1.44,0.26,2.69,0.9,3.67,1.65c0.98,0.76,1.7,1.65,2.19,2.49c0.49,0.85,0.79,1.65,0.93,2.33
						c0.09,0.33,0.13,0.64,0.16,0.9c0.04,0.26,0.05,0.49,0.05,0.67c0,0.16,0,0.3,0.01,0.41
						C195.03,140.62,195.03,140.67,195.02,140.67z"/>
				</g>
				<g>
					<path style="fill:#263238;" d="M215.61,139.86c-0.05,0,0.01-0.75-0.32-2.04c-0.32-1.26-1.17-3.12-3.06-4.55
						c-0.94-0.7-2.12-1.3-3.49-1.53c-1.36-0.23-2.88-0.19-4.34,0.37c-0.73,0.25-1.44,0.64-2.09,1.13c-0.66,0.48-1.25,1.07-1.74,1.75
						c-1.01,1.35-1.59,3.08-1.6,4.87c0.02,1.79,0.59,3.52,1.6,4.87c0.49,0.69,1.09,1.28,1.74,1.75c0.65,0.49,1.35,0.87,2.09,1.13
						c1.45,0.55,2.98,0.6,4.34,0.37c1.36-0.24,2.55-0.83,3.49-1.53c1.9-1.44,2.74-3.29,3.06-4.55
						C215.61,140.61,215.56,139.85,215.61,139.86c0.01,0,0.01,0.18,0,0.54c0,0.18-0.01,0.4-0.05,0.65
						c-0.03,0.26-0.07,0.55-0.16,0.88c-0.29,1.29-1.12,3.2-3.05,4.7c-0.96,0.73-2.17,1.36-3.58,1.61c-1.4,0.25-2.98,0.21-4.48-0.35
						c-0.76-0.26-1.49-0.66-2.17-1.16c-0.68-0.49-1.3-1.1-1.81-1.81c-1.05-1.4-1.65-3.2-1.67-5.06c0.02-1.85,0.61-3.66,1.67-5.05
						c0.51-0.71,1.13-1.32,1.81-1.81c0.67-0.5,1.41-0.9,2.17-1.16c1.51-0.57,3.09-0.6,4.48-0.35c1.41,0.26,2.62,0.88,3.57,1.61
						c1.93,1.5,2.75,3.41,3.05,4.7c0.09,0.32,0.12,0.62,0.16,0.88c0.04,0.26,0.05,0.47,0.05,0.65
						C215.62,139.67,215.62,139.86,215.61,139.86z"/>
				</g>
				<g>
					<path style="fill:#263238;" d="M198.81,137.96c-0.03,0.03-0.23-0.13-0.6-0.31c-0.36-0.17-0.9-0.34-1.51-0.33
						c-0.61,0.01-1.15,0.2-1.5,0.38c-0.36,0.19-0.55,0.36-0.58,0.33c-0.03-0.02,0.11-0.26,0.47-0.52c0.35-0.25,0.93-0.5,1.61-0.51
						c0.68-0.01,1.27,0.21,1.63,0.45C198.68,137.7,198.83,137.93,198.81,137.96z"/>
				</g>
				<g>
					<path style="fill:#263238;" d="M178.3,139.44c0.05,0.07-1.63,1.42-3.77,3.01c-2.13,1.59-3.9,2.83-3.95,2.76
						c-0.05-0.07,1.63-1.42,3.77-3.01C176.48,140.61,178.25,139.37,178.3,139.44z"/>
				</g>
			</g>
			<g style="opacity:0.3;">
				<path d="M171.19,178.56c-0.84,8.16,2.27,16.77,8.81,21.71c0.51,0.39,1.16,0.77,1.76,0.55c0.42-0.15,0.69-0.55,0.91-0.94
					c1.87-3.23,2.49-6.79,1.95-10.48c-1.04,2.73-1.93,5.41-2.97,8.26C175.95,194.2,172.4,186.84,171.19,178.56z"/>
			</g>
			<path style="opacity:0.3;" d="M193.34,197.11l4.8-1.75l0.8,8.12c0,0,5.18-9.44,7.32-13.75c2.14-4.31,1.04-11.91,1.04-11.91
				s0.77,6.62-4.42,15.07l-3.92,6.37v-6.67L193.34,197.11z"/>
			<g style="opacity:0.3;">
				<path d="M137.49,238.38c-2.14-1.01-4.6-1.15-6.96-0.87c-2.48,0.29-4.98,1.05-6.92,2.62c-1.95,1.57-3.27,4.05-3.02,6.53
					l0.24,0.03c1.67-4.53,5.01-7.83,9.3-8.23c4.3-0.4,8.49,1.51,11.44,4.66C141.28,240.78,139.63,239.39,137.49,238.38z"/>
			</g>
			<g style="opacity:0.3;">
				<path d="M258.9,243.02c-1.61-1.74-3.87-2.79-6.2-3.2c-4.09-0.71-8.49,0.56-11.57,3.35l0.92-0.74c2.33-1.36,5.01-2.17,7.7-2.09
					c2.7,0.08,5.39,1.07,7.34,2.93c1.79,1.71,2.87,4.02,3.9,6.27C261.4,247.21,260.51,244.76,258.9,243.02z"/>
			</g>
			<g>
				<path style="fill:#263238;" d="M227.95,205.31c-0.02-0.01,0.06-0.24,0.22-0.66c0.19-0.47,0.41-1.06,0.68-1.75
					c0.58-1.47,1.38-3.51,2.22-5.77c0.84-2.26,1.57-4.33,2.09-5.82c0.25-0.7,0.46-1.29,0.63-1.77c0.15-0.42,0.25-0.64,0.27-0.64
					c0.02,0.01-0.03,0.25-0.15,0.67c-0.12,0.43-0.3,1.04-0.53,1.8c-0.47,1.51-1.16,3.59-2.01,5.86c-0.84,2.27-1.68,4.29-2.31,5.75
					c-0.32,0.73-0.58,1.31-0.78,1.71C228.08,205.1,227.97,205.31,227.95,205.31z"/>
			</g>
			<g>
				<path style="fill:#263238;" d="M152.17,205.9c-0.08,0.02-0.74-2.84-1.46-6.39c-0.72-3.55-1.24-6.43-1.15-6.45
					c0.08-0.02,0.74,2.84,1.46,6.39C151.74,202.99,152.25,205.88,152.17,205.9z"/>
			</g>
			<g>
				<g>
					<path style="fill:#FFBE9D;" d="M151.03,241.65c0.19,0.1-2.2-18.73-2.2-18.73s1.51-14.29,2.36-14.95l0.02-5.04
						c0,0,2.34-1.42,2.96,0.87c0,0,2.07-1.8,2.43,2.48c0.36,4.28,0.44,8.66,0.44,8.66l4.61,11.53l0.76,0.38
						c0,0,0.99-9.03,1.57-10.36c0.58-1.33,0.97-4.56,3.16-4.08c2.19,0.49,2.37,2.29,1.98,5.24c-0.39,2.95-0.88,5.99-0.7,7.89
						c0.18,1.9,1.05,6.09,0.78,9.42c-0.27,3.33-2.09,6.84-4,9.31c-1.91,2.47-5.57,7.56-7.56,9.1
						C156.95,253.92,151.03,241.65,151.03,241.65z"/>
					<g>
						<path style="fill:#EB996E;" d="M153.36,226.33c-0.02,0-0.02-0.29,0.01-0.81c0.04-0.58,0.09-1.31,0.15-2.19
							c0.14-1.85,0.36-4.39,0.61-7.21c0.13-1.4,0.26-2.74,0.38-3.96c0.06-0.61,0.1-1.18,0.02-1.7c-0.07-0.52-0.28-0.97-0.57-1.3
							c-0.61-0.66-1.39-0.83-1.88-0.83c-0.51,0-0.77,0.13-0.78,0.1c0-0.01,0.06-0.04,0.19-0.1c0.13-0.05,0.33-0.11,0.59-0.12
							c0.51-0.04,1.36,0.1,2.05,0.8c0.34,0.35,0.58,0.85,0.67,1.41c0.09,0.56,0.06,1.16,0.01,1.77c-0.11,1.23-0.23,2.56-0.35,3.97
							c-0.26,2.81-0.51,5.36-0.71,7.2c-0.1,0.87-0.18,1.6-0.25,2.18C153.43,226.05,153.38,226.33,153.36,226.33z"/>
					</g>
					<g>
						<path style="fill:#EB996E;" d="M155.84,218.63c0.05,0.04-0.47,0.49-0.82,1.49c-0.37,0.98-0.51,2.46-0.77,4.06
							c-0.25,1.61-0.49,3.06-0.68,4.11c-0.19,1.05-0.33,1.7-0.37,1.69c-0.04-0.01,0.02-0.66,0.15-1.72
							c0.13-1.06,0.34-2.52,0.59-4.13c0.26-1.6,0.43-3.09,0.87-4.1c0.21-0.5,0.46-0.87,0.67-1.1
							C155.69,218.71,155.83,218.62,155.84,218.63z"/>
					</g>
					<g>
						<path style="fill:#EB996E;" d="M154.15,203.55c0.02,0,0.08,0.21,0.16,0.59c0.08,0.38,0.19,0.94,0.3,1.64
							c0.23,1.39,0.48,3.32,0.64,5.46c0.16,2.14,0.19,4.09,0.17,5.5c-0.01,0.7-0.03,1.27-0.06,1.67c-0.03,0.39-0.05,0.61-0.07,0.61
							c-0.05,0-0.06-0.87-0.09-2.27c-0.03-1.4-0.1-3.34-0.26-5.48c-0.16-2.13-0.37-4.06-0.55-5.46
							C154.22,204.42,154.1,203.56,154.15,203.55z"/>
					</g>
					<g>
						<path style="fill:#EB996E;" d="M167.45,221.21c0.05,0.07-0.67,0.41-1.55,0.13c-0.88-0.26-1.29-0.94-1.22-0.98
							c0.07-0.06,0.53,0.45,1.31,0.68C166.76,221.28,167.43,221.12,167.45,221.21z"/>
					</g>
					<path style="fill:#FFBE9D;" d="M151.29,239.31l-12.18,5.12h-7.26c0,0-7.18,2.24-8.28,8.97c-1.1,6.73-1.26,10.19,1.89,11.03
						c3.16,0.83,12.07,0.92,16.49-0.54c4.42-1.47,15.99-10.81,15.99-10.81l1.12-6.76L151.29,239.31z"/>
				</g>
				<g>
					<path style="fill:#EB996E;" d="M154.15,246.75c-0.02,0.01-0.14-0.1-0.35-0.32c-0.22-0.21-0.48-0.56-0.79-1.01
						c-0.6-0.9-1.26-2.26-1.7-3.85c-0.46-1.59-0.65-3.07-0.75-4.14c-0.09-1.07-0.09-1.74-0.05-1.74c0.05,0,0.12,0.66,0.27,1.72
						c0.16,1.06,0.38,2.52,0.83,4.08c0.43,1.57,1.05,2.91,1.59,3.82C153.74,246.22,154.19,246.71,154.15,246.75z"/>
				</g>
			</g>
			<g>
				<path style="fill:#EB996E;" d="M159.45,248.89c-0.07-0.02,0.48-0.95,0.69-2.61c0.1-0.83,0.09-1.83-0.14-2.9
					c-0.23-1.07-0.75-2.18-1.49-3.21c-0.74-1.04-1.57-1.94-2.27-2.81c-0.71-0.87-1.28-1.72-1.65-2.49
					c-0.37-0.77-0.55-1.45-0.61-1.92c-0.06-0.47-0.04-0.74-0.02-0.74c0.06-0.01,0.04,1.08,0.83,2.56c0.39,0.74,0.96,1.56,1.67,2.41
					c0.71,0.86,1.55,1.76,2.31,2.82c0.76,1.05,1.3,2.22,1.52,3.33c0.23,1.11,0.21,2.15,0.08,2.99c-0.13,0.85-0.36,1.5-0.56,1.94
					c-0.09,0.22-0.18,0.38-0.25,0.49C159.5,248.84,159.46,248.89,159.45,248.89z"/>
			</g>
			<g>
				<g>
					<path style="fill:#FFFFFF;" d="M140.67,219.55c-0.08,0.04-1.41-2.38-2.97-5.4c-1.56-3.02-2.77-5.51-2.69-5.55
						c0.08-0.04,1.41,2.38,2.97,5.4C139.54,217.03,140.75,219.51,140.67,219.55z"/>
				</g>
				<g>
					<path style="fill:#FFFFFF;" d="M160.37,197.62c-0.08-0.04,0.74-2.05,1.83-4.5c1.09-2.45,2.04-4.41,2.12-4.38
						c0.08,0.04-0.74,2.05-1.84,4.5C161.4,195.69,160.45,197.65,160.37,197.62z"/>
				</g>
				<g>
					<path style="fill:#FFFFFF;" d="M179.67,211.85c-0.07,0.06-1.3-1.33-2.76-3.09c-1.46-1.76-2.59-3.23-2.52-3.29
						c0.07-0.06,1.3,1.33,2.76,3.09C178.61,210.32,179.73,211.8,179.67,211.85z"/>
				</g>
				<g>
					<path style="fill:#FFFFFF;" d="M175.23,231.43c-0.07-0.05,0.86-1.45,2.08-3.14c1.22-1.68,2.26-3,2.33-2.95
						c0.07,0.05-0.86,1.45-2.08,3.14C176.34,230.16,175.3,231.48,175.23,231.43z"/>
				</g>
				<g>
					<path style="fill:#FFFFFF;" d="M169.25,259.08c-0.04,0.02-0.31-0.44-0.71-1.21c-0.39-0.77-0.91-1.84-1.42-3.05
						c-0.51-1.21-0.93-2.33-1.21-3.14c-0.28-0.82-0.42-1.33-0.38-1.35c0.04-0.01,0.26,0.47,0.59,1.27c0.38,0.9,0.81,1.95,1.29,3.1
						c0.5,1.15,0.94,2.18,1.33,3.08C169.09,258.57,169.29,259.06,169.25,259.08z"/>
				</g>
				<g>
					<path style="fill:#FFFFFF;" d="M186.23,247.33c-0.02,0.08-1.65-0.16-3.65-0.55c-2-0.39-3.61-0.77-3.59-0.85
						c0.02-0.08,1.65,0.16,3.65,0.55C184.64,246.86,186.25,247.24,186.23,247.33z"/>
				</g>
				<g>
					<path style="fill:#FFFFFF;" d="M199.39,221.49c-0.06-0.06,1.49-1.84,3.48-3.98c1.99-2.14,3.65-3.83,3.71-3.77
						c0.06,0.06-1.49,1.84-3.48,3.98C201.12,219.86,199.46,221.55,199.39,221.49z"/>
				</g>
				<g>
					<path style="fill:#FFFFFF;" d="M212.64,255.95c-0.07,0.05-2.01-2.19-4.34-5.02c-2.33-2.83-4.17-5.17-4.1-5.22
						c0.07-0.05,2.01,2.19,4.34,5.02C210.87,253.56,212.71,255.9,212.64,255.95z"/>
				</g>
				<g>
					<path style="fill:#FFFFFF;" d="M130.42,241.26c0.04,0.09-1.73,0.99-3.67,2.47c-1.94,1.47-3.28,2.95-3.35,2.88
						c-0.03-0.03,0.27-0.43,0.82-1.02c0.55-0.59,1.36-1.36,2.35-2.11c0.98-0.75,1.94-1.33,2.66-1.7
						C129.93,241.41,130.4,241.23,130.42,241.26z"/>
				</g>
				<g>
					<path style="fill:#FFFFFF;" d="M135.37,227.98c0.07,0.05-0.56,1.13-1.41,2.41c-0.85,1.28-1.6,2.28-1.67,2.23
						c-0.07-0.05,0.56-1.12,1.41-2.41C134.55,228.93,135.3,227.93,135.37,227.98z"/>
				</g>
				<g>
					<path style="fill:#FFFFFF;" d="M146.53,241.02c-0.07,0.04-0.69-1.01-1.02-2.47c-0.34-1.46-0.23-2.68-0.15-2.67
						c0.09,0,0.12,1.19,0.45,2.6C146.13,239.9,146.61,240.98,146.53,241.02z"/>
				</g>
				<g>
					<path style="fill:#FFFFFF;" d="M148.18,199.59c0.01,0.09-1.02,0.3-2.32,0.49c-1.29,0.18-2.35,0.26-2.36,0.18
						c-0.01-0.09,1.02-0.3,2.32-0.49C147.11,199.59,148.17,199.51,148.18,199.59z"/>
				</g>
				<g>
					<path style="fill:#FFFFFF;" d="M156.56,184.73c0.04,0.08-0.87,0.66-2.03,1.3c-1.16,0.64-2.14,1.1-2.18,1.03
						c-0.04-0.08,0.87-0.66,2.03-1.3C155.55,185.12,156.52,184.66,156.56,184.73z"/>
				</g>
				<g>
					<path style="fill:#FFFFFF;" d="M180.13,191.01c-0.07,0.05-1.11-1.2-2.32-2.79c-1.21-1.59-2.14-2.92-2.07-2.98
						c0.07-0.05,1.11,1.19,2.32,2.79C179.28,189.63,180.2,190.96,180.13,191.01z"/>
				</g>
				<g>
					<path style="fill:#FFFFFF;" d="M210.05,205.96c-0.06,0.05-1.15-1.07-2.16-2.71c-1.02-1.63-1.55-3.11-1.47-3.14
						c0.09-0.04,0.73,1.37,1.74,2.97C209.15,204.7,210.12,205.9,210.05,205.96z"/>
				</g>
				<g>
					<path style="fill:#FFFFFF;" d="M221.47,209.72c0.08,0.04-0.48,1.43-1.24,3.11c-0.76,1.68-1.45,3.02-1.52,2.98
						c-0.08-0.04,0.48-1.43,1.24-3.11C220.71,211.02,221.39,209.68,221.47,209.72z"/>
				</g>
				<g>
					<path style="fill:#FFFFFF;" d="M223.07,194.13c-0.07,0.06-1.43-1.47-3.04-3.4c-1.61-1.94-2.86-3.55-2.8-3.61
						c0.07-0.06,1.43,1.47,3.04,3.4C221.88,192.46,223.13,194.08,223.07,194.13z"/>
				</g>
				<g>
					<path style="fill:#FFFFFF;" d="M205.63,181.47c-0.09,0-0.21-1.3-0.27-2.91c-0.06-1.61-0.05-2.92,0.04-2.93
						c0.09,0,0.21,1.3,0.27,2.91C205.73,180.16,205.71,181.47,205.63,181.47z"/>
				</g>
				<g>
					<path style="fill:#FFFFFF;" d="M219.85,180.68c0.01,0.09-1.65,0.38-3.71,0.65c-2.06,0.28-3.74,0.43-3.75,0.34
						c-0.01-0.09,1.65-0.38,3.71-0.65C218.15,180.75,219.83,180.6,219.85,180.68z"/>
				</g>
				<g>
					<path style="fill:#FFFFFF;" d="M242.24,197.14c-0.08,0.04-1.08-1.87-2.23-4.26c-1.16-2.39-2.03-4.36-1.95-4.39
						c0.08-0.04,1.08,1.87,2.23,4.26C241.45,195.13,242.32,197.1,242.24,197.14z"/>
				</g>
				<g>
					<path style="fill:#FFFFFF;" d="M238.47,211.35c-0.08-0.02,0.15-1.55,0.52-3.42c0.37-1.87,0.75-3.38,0.83-3.36
						c0.08,0.02-0.15,1.55-0.52,3.42C238.93,209.86,238.56,211.37,238.47,211.35z"/>
				</g>
				<g>
					<path style="fill:#FFFFFF;" d="M248.86,222.56c-0.08,0.03-0.88-2.04-1.78-4.62c-0.9-2.58-1.57-4.69-1.49-4.72
						c0.08-0.03,0.88,2.04,1.78,4.62C248.28,220.42,248.94,222.53,248.86,222.56z"/>
				</g>
				<g>
					<path style="fill:#FFFFFF;" d="M247.41,229.11c-0.02,0.08-1.46-0.22-3.04-1.09c-1.59-0.85-2.62-1.9-2.57-1.95
						c0.06-0.07,1.17,0.84,2.72,1.68C246.07,228.59,247.44,229.02,247.41,229.11z"/>
				</g>
				<g>
					<path style="fill:#FFFFFF;" d="M260.72,244.06c-0.08,0.04-0.56-0.88-1.08-2.04c-0.52-1.16-0.87-2.13-0.79-2.17
						c0.08-0.04,0.56,0.88,1.08,2.04C260.45,243.06,260.8,244.03,260.72,244.06z"/>
				</g>
				<g>
					<path style="fill:#FFFFFF;" d="M182.12,264.9c-0.09,0.01-0.3-1.18-0.47-2.66c-0.17-1.48-0.24-2.69-0.16-2.7
						c0.09-0.01,0.29,1.18,0.47,2.66C182.14,263.69,182.21,264.89,182.12,264.9z"/>
				</g>
				<g>
					<path style="fill:#FFFFFF;" d="M222.95,263.87c-0.08-0.02,0.09-1.18,0.39-2.6c0.3-1.42,0.62-2.56,0.7-2.54
						c0.08,0.02-0.09,1.18-0.39,2.6C223.35,262.75,223.04,263.89,222.95,263.87z"/>
				</g>
			</g>
		</g>
		<g>
			<g>
				<g>
					<g>
						<g>
							<g>
								<g>
									<g>
										<g>
											<path style="fill:#FAFAFA;" d="M230.78,144.68l5.28-9.3c-2.34-3.79-3.69-8.25-3.69-13.03
												c0-13.75,11.14-24.89,24.89-24.89c13.75,0,24.89,11.14,24.89,24.89c0,13.75-11.14,24.89-24.89,24.89
												c-5.74,0-11.02-1.95-15.23-5.21l0.01,0.01L230.78,144.68z"/>
										</g>
									</g>
								</g>
							</g>
							<g>
								<g>
									<g>
										<g>
											<g>
												<path style="fill:#263238;" d="M230.78,144.68c0.53-0.12,4.1-0.94,11.28-2.58l0.12-0.03l-0.07-0.09l-0.01-0.01
													l-0.11,0.11c1.42,1.1,3.12,2.18,5.12,3.09c2,0.89,4.3,1.61,6.83,1.95c1.26,0.16,2.58,0.27,3.94,0.2
													c0.68-0.04,1.37-0.05,2.06-0.11c0.69-0.1,1.39-0.21,2.1-0.32c2.82-0.56,5.7-1.63,8.39-3.29
													c2.69-1.66,5.17-3.92,7.17-6.69c1.99-2.77,3.5-6.05,4.21-9.62c0.7-3.56,0.64-7.38-0.29-11.08
													c-0.94-3.68-2.7-7.28-5.34-10.24l-1.02-1.12c-0.33-0.38-0.73-0.69-1.1-1.03c-0.38-0.33-0.72-0.7-1.13-0.98l-1.19-0.89
													c-0.39-0.31-0.81-0.56-1.24-0.82c-0.42-0.26-0.84-0.51-1.26-0.77c-0.44-0.21-0.88-0.43-1.32-0.64
													c-0.44-0.2-0.87-0.45-1.34-0.59c-3.62-1.44-7.47-1.98-11.16-1.71c-3.69,0.27-7.22,1.32-10.24,3.03
													c-3.04,1.69-5.6,3.95-7.57,6.47c-1.98,2.52-3.38,5.3-4.24,8.07c-0.86,2.78-1.09,5.54-1.08,8.1
													c0.07,2.56,0.54,4.92,1.22,6.99c0.68,2.07,1.57,3.86,2.5,5.36l0-0.07C232.67,141.31,231.04,144.22,230.78,144.68
													c0.26-0.45,1.93-3.35,5.34-9.27l0.02-0.04l-0.02-0.04c-0.91-1.5-1.78-3.27-2.45-5.34c-0.66-2.06-1.12-4.4-1.18-6.94
													c0-2.53,0.24-5.27,1.1-8.02c0.86-2.74,2.25-5.49,4.22-7.98c1.96-2.49,4.5-4.72,7.5-6.38c3-1.68,6.48-2.72,10.13-2.98
													c3.64-0.26,7.45,0.28,11.03,1.7c0.46,0.15,0.88,0.38,1.32,0.59c0.43,0.21,0.87,0.42,1.31,0.63
													c0.41,0.25,0.83,0.5,1.25,0.76c0.42,0.25,0.84,0.5,1.22,0.81l1.18,0.88c0.4,0.28,0.74,0.65,1.11,0.97
													c0.36,0.34,0.75,0.65,1.08,1.02l1,1.11c2.6,2.92,4.34,6.48,5.27,10.11c0.93,3.65,0.99,7.42,0.3,10.94
													c-0.69,3.53-2.18,6.77-4.15,9.51c-1.97,2.75-4.42,4.98-7.08,6.63c-2.66,1.66-5.51,2.72-8.3,3.28
													c-0.7,0.11-1.4,0.22-2.08,0.32c-0.69,0.06-1.37,0.08-2.05,0.12c-1.34,0.07-2.65-0.03-3.91-0.18
													c-2.51-0.32-4.79-1.03-6.78-1.91c-1.99-0.89-3.68-1.95-5.1-3.04l-0.46-0.35l0.36,0.46l0.01,0.01l0.04-0.12
													C234.87,143.69,231.32,144.55,230.78,144.68z"/>
											</g>
										</g>
									</g>
								</g>
							</g>
						</g>
					</g>
				</g>
			</g>
			<g>
				<g>
					<g>
						<g>
							<g>
								<g>
									<g>
										<path style="fill:#263238;" d="M263.99,121.3c0,1.34,1.09,2.43,2.43,2.43c1.34,0,2.43-1.09,2.43-2.43
											c0-1.34-1.09-2.43-2.43-2.43C265.07,118.87,263.99,119.96,263.99,121.3z"/>
									</g>
								</g>
							</g>
						</g>
					</g>
				</g>
				<g>
					<g>
						<g>
							<g>
								<g>
									<g>
										<path style="fill:#263238;" d="M254.25,121.3c0,1.34,1.09,2.43,2.43,2.43c1.34,0,2.43-1.09,2.43-2.43
											c0-1.34-1.09-2.43-2.43-2.43C255.34,118.87,254.25,119.96,254.25,121.3z"/>
									</g>
								</g>
							</g>
						</g>
					</g>
				</g>
				<g>
					<g>
						<g>
							<g>
								<g>
									<g>
										<path style="fill:#263238;" d="M244.54,120.09c-0.67,1.16-0.27,2.65,0.89,3.32c1.16,0.67,2.65,0.27,3.32-0.89
											c0.67-1.16,0.27-2.65-0.89-3.32C246.7,118.52,245.22,118.92,244.54,120.09z"/>
									</g>
								</g>
							</g>
						</g>
					</g>
				</g>
			</g>
		</g>
	</g>
	<g>
		<g>
			<polygon points="295.12,334.39 320.08,349.27 302.56,360.31 277.48,345.55 			"/>
		</g>
		<g>
			<polygon style="fill:#A2A1F5;" points="296.12,332.39 321.08,347.27 303.56,358.31 278.48,343.55 			"/>
		</g>
	</g>
	<g>
		<path d="M280.76,56.85c-4.64-2.4-9.93-2.94-14.87-1.5c-3.67,1.05-6.82,3.12-9.19,5.92v-0.19l-3.45,0.54l0.56,3.12l0.56,0
			l10.58,5.49c0.87-1.67,2.39-2.89,4.28-3.44c2-0.57,4.14-0.35,6.05,0.64c2.67,1.39,4.27,3.99,4.38,6.63l-1.86,0.29l0.67,3.23
			l0.45-0.11h0l10.58,5.49c0.04-0.08,0.07-0.14,0.11-0.22C294.31,73.41,290.37,61.83,280.76,56.85z"/>
		<g>
			<g>
				<path style="fill:#C3DFDD;" d="M288.5,79.62c-0.04,0.08-0.07,0.14-0.11,0.22l-10.58-5.49c0.01-0.03,0.03-0.05,0.04-0.08
					c1.77-3.53,0.14-7.98-3.68-9.97c-1.91-1-4.05-1.22-6.05-0.64c-1.89,0.55-3.4,1.77-4.28,3.44l-10.58-5.49
					c2.39-4.58,6.47-7.94,11.52-9.39c4.95-1.44,10.23-0.9,14.87,1.5C289.25,58.71,293.19,70.29,288.5,79.62z"/>
			</g>
		</g>
	</g>
</g>
</svg>
