<?xml version="1.0" encoding="utf-8"?>
<!-- Generator: Adobe Illustrator 27.0.0, SVG Export Plug-In . SVG Version: 6.00 Build 0)  -->
<svg version="1.1" id="Layer_1" xmlns="http://www.w3.org/2000/svg" xmlns:xlink="http://www.w3.org/1999/xlink" x="0px" y="0px"
	 viewBox="0 0 120 48" style="enable-background:new 0 0 120 48;" xml:space="preserve">
<style type="text/css">
	.st0{stroke:#000000;stroke-miterlimit:10;}
	.st1{fill:#6597F4;stroke:#000000;stroke-miterlimit:10;}
	.st2{fill:#A4A2F8;stroke:#000000;stroke-miterlimit:10;}
	.st3{font-family:'Verdana';}
	.st4{font-size:18.0437px;}
</style>
<g>
	<g>
		<g>
			<path class="st0" d="M24.99,40.62c-3.71-1.39-6.72-4.03-8.47-7.45c-1.82-3.54-2.07-7.47-0.73-11.07
				c2.73-7.29,11.29-10.85,19.1-7.93l-2.85,7.61c-3.6-1.35-7.48,0.07-8.64,3.17c-0.54,1.43-0.41,3.03,0.35,4.51
				c0.82,1.61,2.28,2.87,4.09,3.55L24.99,40.62z"/>
		</g>
		<g>
			<g>
				<path class="st1" d="M26.99,41.62c-3.71-1.39-6.72-4.03-8.47-7.45c-1.82-3.54-2.07-7.47-0.73-11.07
					c2.73-7.29,11.29-10.85,19.1-7.93l-2.85,7.61c-3.6-1.35-7.48,0.07-8.64,3.17c-0.54,1.43-0.41,3.03,0.35,4.51
					c0.82,1.61,2.28,2.87,4.09,3.55L26.99,41.62z"/>
			</g>
		</g>
	</g>
	<g>
		<g>
			<path class="st0" d="M3.73,32.98c-0.06,0-0.11,0-0.17,0l0.1-8.12c0.02,0,0.04,0,0.06,0c2.69,0,4.9-2.36,4.94-5.29
				c0.02-1.47-0.5-2.84-1.46-3.88c-0.91-0.98-2.12-1.53-3.4-1.55l0.1-8.12c3.52,0.05,6.81,1.51,9.24,4.14
				c2.39,2.57,3.68,5.95,3.64,9.51C16.69,27.04,10.85,32.98,3.73,32.98z"/>
		</g>
		<g>
			<g>
				<path class="st2" d="M4.73,33.98c-0.06,0-0.11,0-0.17,0l0.1-8.12c0.02,0,0.04,0,0.06,0c2.69,0,4.9-2.36,4.94-5.29
					c0.02-1.47-0.5-2.84-1.46-3.88c-0.91-0.98-2.12-1.53-3.4-1.55l0.1-8.12c3.52,0.05,6.81,1.51,9.24,4.14
					c2.39,2.57,3.68,5.95,3.64,9.51C17.69,28.04,11.85,33.98,4.73,33.98z"/>
			</g>
		</g>
	</g>
</g>
<g>
	<g>
		<path d="M59.86,23.1H56.5v-8.78l-2.43,5.7h-2.33l-2.43-5.7v8.78h-3.19V9.98h3.93l2.95,6.58l2.94-6.58h3.93V23.1z"/>
		<path d="M74.3,23.1H62.62v-2.33h2.15v-8.47h-2.15V9.98H74.3v2.33h-6.15v8.47h6.15V23.1z"/>
		<path d="M85.31,23.1h-4.16l-3.92-5.25l-0.78,0.97v4.28h-3.38V9.98h3.38v5.94l4.69-5.94h3.92l-5.13,6.07L85.31,23.1z"/>
		<path d="M94.06,23.1h-7.68v-2.33h2.15v-8.47h-2.15V9.98h7.68v2.33h-2.15v8.47h2.15V23.1z"/>
	</g>
	<text transform="matrix(1 0 0 1 44.4338 41.6185)" class="st3 st4">academi</text>
</g>
</svg>
